<?xml version="1.0" encoding="utf-8"?>
<!-- Generator: Adobe Illustrator 26.0.3, SVG Export Plug-In . SVG Version: 6.00 Build 0)  -->
<svg version="1.1" id="Ebene_1" xmlns="http://www.w3.org/2000/svg" xmlns:xlink="http://www.w3.org/1999/xlink" x="0px" y="0px"
	 viewBox="0 0 761.9 204.8" style="enable-background:new 0 0 761.9 204.8;" xml:space="preserve">
<style type="text/css">
	.st0{fill-rule:evenodd;clip-rule:evenodd;fill:#00C8F3;}
	.st1{fill:#B732C5;}
</style>
<g>
	<g>
		<path class="st0" d="M104.3,26.5c6.4,0,13.8,0.8,19.9,3.4c0.9,0.4,1.2,1,1.2,1.9l0,0v45.1c0,18.2-8.9,24.6-25.8,27
			c-1,0.1-1.5-0.1-1.7-1.1l0,0l-0.7-5.6c0-0.6,0.2-1.1,1.1-1.3c11.6-1.7,18-4.9,18-15.1l0,0v-0.6c-4.3,1.3-10,2.2-13.7,2.2
			c-16,0-23.1-11.3-23.1-27.3C79.5,38.5,87.2,26.5,104.3,26.5z M183.3,26.4c16.4,0,23.8,11.8,23.8,27.9c0,15.4-7.8,28-23.7,28
			c-3.8,0-8.3-0.3-13.3-1.7l0,0v19.8c0,1.2-0.4,1.4-1.5,1.4l0,0h-5.7c-1,0-1.6-0.2-1.6-1.4l0,0V31.9c0-0.9,0.3-1.4,1.2-1.7
			C169.2,27.2,176.8,26.4,183.3,26.4z M239.2,26.4c13.5,0,19.6,6.3,19.6,17.8l0,0v32c0,1.4-0.5,2.2-1.5,2.7
			c-6,2.7-13.8,3.5-20.2,3.5c-17.6,0-22-8.1-22-16.9c0-9.4,6-18.2,22.3-18.2l0,0h12.5v-2.2c0-6.4-2-10.7-12.2-10.7
			c-4.7,0-10.8,1-14.2,2c-1.1,0.4-1.7,0.4-2-0.7l0,0l-1.2-4.4c-0.2-0.7-0.1-1.3,0.9-1.7C226.2,27.2,233.7,26.4,239.2,26.4z
			 M334.1,26.4c13.5,0,19.6,6.3,19.6,17.8l0,0v32c0,1.4-0.5,2.2-1.5,2.7c-6,2.7-13.8,3.5-20.2,3.5c-17.6,0-22-8.1-22-16.9
			c0-9.4,6-18.2,22.3-18.2l0,0h12.5v-2.2c0-6.4-2-10.7-12.2-10.7c-4.7,0-10.8,1-14.2,2c-1.1,0.4-1.7,0.4-2-0.7l0,0l-1.2-4.4
			c-0.2-0.7-0.1-1.3,0.9-1.7C321.1,27.2,328.6,26.4,334.1,26.4z M44.2,6.5c1.1,0,1.6,0.2,1.6,1.5l0,0v68.7c0,0.9-0.3,1.4-1.2,1.8
			c-7,3.1-15,3.7-21,3.7C6.5,82.3,0,71.7,0,55.2C0,40,7.6,26.4,24.7,26.4c3.1,0,7.7,0.2,12.1,1.5l0,0V8c0-1.3,0.4-1.5,1.6-1.5l0,0
			H44.2z M286,26.4c8,0,14.8,2,20.5,7c0.6,0.6,0.5,1.1,0.1,1.6l0,0l-3.8,4.9c-0.6,0.9-1.1,0.5-1.7,0.1c-3.8-3.7-8.8-5.7-14.5-5.7
			c-1.7,0-3.9,0.2-6,0.6l0,0v44.6c0,1.3-0.5,1.5-1.6,1.5l0,0h-5.6c-1,0-1.5-0.2-1.5-1.5l0,0V34.7c0-4.9,1.2-6.9,6.3-7.8
			C280.9,26.6,283.4,26.4,286,26.4z M66.6,27.5c1.2,0,1.6,0.2,1.6,1.5l0,0v50.5c0,1.3-0.4,1.5-1.6,1.5l0,0h-5.5
			c-1.1,0-1.7-0.2-1.7-1.5l0,0V29.1c0-1.3,0.6-1.5,1.7-1.5l0,0H66.6z M146.2,27.5c1.2,0,1.6,0.2,1.6,1.5l0,0v50.5
			c0,1.3-0.4,1.5-1.6,1.5l0,0h-5.5c-1.1,0-1.7-0.2-1.7-1.5l0,0V29.1c0-1.3,0.6-1.5,1.7-1.5l0,0H146.2z M249.7,54.8l-12.2,0
			c-5.1,0-13.5,1.1-13.5,10.5c0,7.5,5.7,9.6,13,9.6c2.3,0,8.5-0.3,12.8-1.9l0,0V54.8z M344.6,54.8l-12.2,0
			c-5.1,0-13.5,1.1-13.5,10.5c0,7.5,5.7,9.6,13,9.6c2.3,0,8.5-0.3,12.8-1.9l0,0V54.8z M25.3,34.1c-9.3,0-16.1,6.2-16.1,21.1
			c0,14.4,6.1,19.4,15.9,19.4c3.4,0,8.7-0.7,11.7-1.8l0,0v-37C31.8,34.4,28.4,34.1,25.3,34.1z M104.6,34.1c-9.5,0.1-16,5.8-16,20.4
			c0,13.4,5.6,20.1,15,20.1c2.5,0,7.8-0.4,12.9-2l0,0V35.8C112.5,34.5,107.8,34.1,104.6,34.1z M181.9,34.1c-3.5,0-8.7,0.7-11.7,1.9
			l0,0v36.8c5.1,1.5,8.7,1.8,11.8,1.8c9.2,0,15.8-5.3,15.8-20.3C197.8,39.3,191.6,34.1,181.9,34.1z M365.5,0
			c6.5,0,11.3,4.9,11.3,11.3c0,6.3-5.1,11.1-11.4,11.1c-6.4,0-11.3-4.8-11.3-11.1C354,4.9,359.1,0,365.5,0z M365.4,2.3
			c-5,0-8.8,3.9-8.8,8.9c0,5,3.8,8.9,8.8,8.9c5,0,8.7-3.7,8.7-8.9C374.1,6.2,370.3,2.3,365.4,2.3z M64,7.2c3.3,0,5.9,2.7,5.9,6
			c0,3.3-2.7,5.9-5.9,5.9c-3.3,0-6-2.7-6-5.9C57.9,9.9,60.7,7.2,64,7.2z M143.5,7.2c3.3,0,5.9,2.7,5.9,6c0,3.3-2.7,5.9-5.9,5.9
			c-3.3,0-6-2.7-6-5.9C137.5,9.9,140.2,7.2,143.5,7.2z M366.1,4.8c2.6,0,4.1,1.5,4.1,3.7c0,1.3-0.7,2.5-1.9,3.1l0,0v0
			c1,0.3,1.3,1,1.5,1.8l0,0l0.9,3.4c0,0.2,0.1,0.5-0.3,0.5l0,0l-2.2,0c-0.2,0-0.4-0.1-0.5-0.4c-0.1-0.6-0.6-2.4-0.8-3.1
			c-0.3-1.1-0.8-1.5-1.9-1.5l0,0h-1.6v4.6c0,0.4-0.1,0.4-0.5,0.4l0,0h-2c-0.3,0-0.4-0.1-0.4-0.4l0,0V6c0-0.8,0.4-1.2,1.2-1.2l0,0
			H366.1z M365.9,7.3h-2.3v2.7h2.3c1,0,1.5-0.6,1.5-1.3C367.4,8.1,367,7.3,365.9,7.3L365.9,7.3z"/>
		<path class="st1" d="M46,171.6c0,6.4-3.6,8-7.7,8H9c0.1,12.9,7.4,17.6,16.2,17.6c4.5,0,9.2-1.3,12-2.9c0.9-0.5,1.4-0.4,1.9,0.5
			l2.1,4.3c0.5,1,0.3,1.6-0.6,2c-4.9,3-10.8,3.8-16.2,3.8C9.2,204.8,0,196.5,0,177.2c0-18,10.1-28.2,23.6-28.2
			C39.1,149,46,158.2,46,171.6z M23.7,156.4c-9,0-13.9,7.6-14.4,15.9h28.3C37.6,163.8,34.7,156.4,23.7,156.4z"/>
		<path class="st1" d="M73.2,203.6c-2.3,1-5.6,1.2-7.8,1.2c-6.9,0-9.4-3.3-9.4-10.2v-64c0-1.3,0.5-1.5,1.6-1.5h5.7
			c1.2,0,1.6,0.2,1.6,1.5v61.5c0,3.9,0.9,4.9,3.6,4.9c1.3,0,2.7-0.1,3.7-0.2c0.9-0.1,1.3,0,1.4,0.9l0.5,4
			C74.3,202.8,74.3,203.1,73.2,203.6z"/>
		<path class="st1" d="M124.4,171.6c0,6.4-3.6,8-7.7,8H87.5c0.1,12.9,7.4,17.6,16.2,17.6c4.5,0,9.2-1.3,12-2.9
			c0.9-0.5,1.4-0.4,1.9,0.5l2.1,4.3c0.5,1,0.3,1.6-0.6,2c-4.9,3-10.8,3.8-16.2,3.8c-15.3,0-24.5-8.4-24.5-27.7
			c0-18,10.1-28.2,23.6-28.2C117.6,149,124.4,158.2,124.4,171.6z M102.2,156.4c-9,0-13.9,7.6-14.4,15.9h28.3
			C116.1,163.8,113.2,156.4,102.2,156.4z"/>
		<path class="st1" d="M159.8,199.7c-1.1,3.3-2,4.5-5.1,4.5h-4c-2.6,0-3.9-0.7-5.2-4.4l-16.7-48.7c-0.2-0.6,0-1,0.8-1h6.8
			c0.9,0,1.2,0.3,1.4,0.9l9.6,28.2l5.1,16.6h0.5l4.9-16.4l9.3-28.4c0.2-0.6,0.5-0.9,1.4-0.9h6.7c0.7,0,0.9,0.4,0.8,1L159.8,199.7z"
			/>
		<path class="st1" d="M222.5,201.4c-6,2.7-13.8,3.5-20.2,3.5c-17.6,0-22-8.1-22-16.9c0-9.4,6-18.2,22.3-18.2h12.5v-2.2
			c0-6.4-2-10.7-12.2-10.7c-4.7,0-10.8,1-14.2,2c-1.1,0.4-1.7,0.4-2-0.7l-1.2-4.4c-0.2-0.7-0.1-1.3,0.9-1.7c5.1-2.1,12.6-3,18.1-3
			c13.5,0,19.6,6.3,19.6,17.8v32C224.1,200.1,223.5,201,222.5,201.4z M215,177.4h-11.8c-5,0-13.9,0.8-13.9,10.5
			c0,7.5,5.7,9.6,13,9.6c2.3,0,8.5-0.3,12.8-1.9V177.4z"/>
		<path class="st1" d="M232.5,157.2c-1.2,0-1.4-0.6-1.4-1.4v-3c0-1,0.3-1.4,1.4-1.7l8-1.5l1.6-9.8c0.2-1.3,0.7-1.5,1.8-2l3.4-1.2
			c0.9-0.2,1.5,0,1.5,1.3v12.4h11.3c1.2,0,1.4,0.6,1.4,1.5v4.1c0,1-0.2,1.4-1.4,1.4h-11.3v33.1c0,4.7,1.9,6.7,6.8,6.7
			c1.7,0,5.6-0.4,7.9-0.7c1.2-0.2,1.4,0.1,1.5,0.8l0.9,4.6c0.1,0.8,0.3,1.3-0.8,1.7c-4,1.2-9,1.4-10.9,1.4c-10.6,0-14.3-4.5-14.3-14
			v-33.7H232.5z"/>
		<path class="st1" d="M293.6,204.8c-15.3,0-23.6-9.6-23.6-27.9c0-18,10.2-28,23.9-28c15.5,0,23.8,10.4,23.8,27.7
			C317.7,194.7,309.2,204.8,293.6,204.8z M294,156.4c-10.4,0-15.1,9.2-15.1,20.2c0,12.3,3.5,20.7,14.8,20.7c11.5,0,15-10.1,15-20.4
			C308.7,166.3,305.9,156.4,294,156.4z"/>
		<path class="st1" d="M359.6,162.6c-0.6,0.9-1.1,0.5-1.7,0.1c-3.8-3.7-8.8-5.7-14.5-5.7c-1.7,0-3.9,0.2-6,0.6v44.6
			c0,1.3-0.5,1.5-1.6,1.5h-5.6c-1,0-1.5-0.2-1.5-1.5v-44.9c0-4.9,1.2-6.9,6.3-7.8c2.8-0.3,5.3-0.5,7.9-0.5c8,0,14.8,2,20.5,7
			c0.6,0.6,0.5,1.1,0.1,1.6L359.6,162.6z"/>
		<path class="st1" d="M409,201.4c-6,2.7-13.8,3.5-20.2,3.5c-17.6,0-22-8.1-22-16.9c0-9.4,6-18.2,22.3-18.2h12.5v-2.2
			c0-6.4-2-10.7-12.2-10.7c-4.7,0-10.8,1-14.2,2c-1.1,0.4-1.7,0.4-2-0.7l-1.2-4.4c-0.2-0.7-0.1-1.3,0.9-1.7c5.1-2.1,12.6-3,18.1-3
			c13.5,0,19.6,6.3,19.6,17.8v32C410.5,200.1,410,201,409,201.4z M401.4,177.4h-11.8c-5,0-13.9,0.8-13.9,10.5c0,7.5,5.7,9.6,13,9.6
			c2.3,0,8.5-0.3,12.8-1.9V177.4z"/>
		<path class="st1" d="M454.6,162.6c-0.6,0.9-1.1,0.5-1.7,0.1c-3.8-3.7-8.8-5.7-14.5-5.7c-1.7,0-3.9,0.2-6,0.6v44.6
			c0,1.3-0.5,1.5-1.6,1.5h-5.6c-1,0-1.5-0.2-1.5-1.5v-44.9c0-4.9,1.2-6.9,6.3-7.8c2.8-0.3,5.3-0.5,7.9-0.5c8,0,14.8,2,20.5,7
			c0.6,0.6,0.5,1.1,0.1,1.6L454.6,162.6z"/>
		<path class="st1" d="M498.9,194.2c1.2-0.7,1.6-0.2,2,0.5l2,4.3c0.6,1,0.3,1.6-0.5,2.1c-5.2,2.9-11.7,3.7-17.3,3.7
			c-14.9,0-23.1-9.4-23.1-27.4c0-17.5,9.3-28.5,24.2-28.5c5.4,0,10.4,1,15,3.6c0.8,0.5,1.2,1.1,0.6,2.1l-2.1,4.2
			c-0.4,0.8-0.7,1.2-1.9,0.6c-3.3-1.4-7-2.6-11.4-2.6c-10.9,0-15.4,9.7-15.4,20.5c0,10.8,3.4,19.7,15.5,19.7
			C491.2,197.2,496,195.8,498.9,194.2z"/>
		<path class="st1" d="M556.1,202.2c0,1.3-0.5,1.5-1.6,1.5h-5.7c-1.2,0-1.6-0.2-1.6-1.5v-29.1c0-11-4.5-16.3-13.9-16.3
			c-4,0-9.1,0.6-12.5,2.1v43.3c0,1.3-0.5,1.5-1.6,1.5h-5.6c-1,0-1.6-0.2-1.6-1.5v-71.6c0-1.3,0.6-1.5,1.6-1.5h5.6
			c1.1,0,1.6,0.2,1.6,1.5v20.7c4.4-1.7,10.1-2.3,14-2.3c15.2,0,21.3,9.2,21.3,24.1V202.2z"/>
		<path class="st1" d="M573.9,141.7c-3.3,0-6-2.7-6-5.9c0-3.4,2.8-6,6-6c3.3,0,5.9,2.7,5.9,6C579.8,139.1,577.2,141.7,573.9,141.7z
			 M576.5,203.7H571c-1.1,0-1.7-0.2-1.7-1.5v-50.5c0-1.3,0.6-1.5,1.7-1.5h5.5c1.2,0,1.6,0.2,1.6,1.5v50.5
			C578.2,203.5,577.8,203.7,576.5,203.7z"/>
		<path class="st1" d="M588.5,157.2c-1.2,0-1.4-0.6-1.4-1.4v-3c0-1,0.3-1.4,1.4-1.7l8-1.5l1.6-9.8c0.2-1.3,0.7-1.5,1.8-2l3.4-1.2
			c0.9-0.2,1.5,0,1.5,1.3v12.4h11.3c1.2,0,1.4,0.6,1.4,1.5v4.1c0,1-0.2,1.4-1.4,1.4h-11.3v33.1c0,4.7,1.9,6.7,6.8,6.7
			c1.7,0,5.6-0.4,7.9-0.7c1.2-0.2,1.4,0.1,1.5,0.8l0.9,4.6c0.1,0.8,0.3,1.3-0.8,1.7c-4,1.2-9,1.4-10.9,1.4c-10.6,0-14.3-4.5-14.3-14
			v-33.7H588.5z"/>
		<path class="st1" d="M671.9,171.6c0,6.4-3.6,8-7.7,8h-29.3c0.1,12.9,7.4,17.6,16.2,17.6c4.5,0,9.2-1.3,12-2.9
			c0.9-0.5,1.4-0.4,1.9,0.5l2.1,4.3c0.5,1,0.3,1.6-0.6,2c-4.9,3-10.8,3.8-16.2,3.8c-15.3,0-24.5-8.4-24.5-27.7
			c0-18,10.1-28.2,23.6-28.2C665,149,671.9,158.2,671.9,171.6z M649.6,156.4c-9,0-13.9,7.6-14.4,15.9h28.3
			C663.5,163.8,660.6,156.4,649.6,156.4z"/>
		<path class="st1" d="M716.8,194.2c1.2-0.7,1.6-0.2,2,0.5l2,4.3c0.6,1,0.3,1.6-0.5,2.1c-5.2,2.9-11.7,3.7-17.3,3.7
			c-14.9,0-23.1-9.4-23.1-27.4c0-17.5,9.3-28.5,24.2-28.5c5.4,0,10.4,1,15,3.6c0.8,0.5,1.2,1.1,0.6,2.1l-2.1,4.2
			c-0.4,0.8-0.7,1.2-1.9,0.6c-3.3-1.4-7-2.6-11.4-2.6c-10.9,0-15.4,9.7-15.4,20.5c0,10.8,3.4,19.7,15.5,19.7
			C709,197.2,713.8,195.8,716.8,194.2z"/>
		<path class="st1" d="M728.4,157.2c-1.2,0-1.4-0.6-1.4-1.4v-3c0-1,0.3-1.4,1.4-1.7l8-1.5l1.6-9.8c0.2-1.3,0.7-1.5,1.8-2l3.4-1.2
			c0.9-0.2,1.5,0,1.5,1.3v12.4H756c1.2,0,1.4,0.6,1.4,1.5v4.1c0,1-0.2,1.4-1.4,1.4h-11.3v33.1c0,4.7,1.9,6.7,6.8,6.7
			c1.7,0,5.6-0.4,7.9-0.7c1.2-0.2,1.4,0.1,1.5,0.8l0.9,4.6c0.1,0.8,0.3,1.3-0.8,1.7c-4,1.2-9,1.4-10.9,1.4c-10.6,0-14.3-4.5-14.3-14
			v-33.7H728.4z"/>
	</g>
</g>
</svg>
