<?xml version="1.0" encoding="utf-8"?>
<svg version="1.1" id="Ebene_1" xmlns="http://www.w3.org/2000/svg" xmlns:xlink="http://www.w3.org/1999/xlink" x="0px" y="0px"
	 viewBox="0 0 32.3 44.4" style="enable-background:new 0 0 32.3 44.4;" xml:space="preserve">
    <style type="text/css">
	.st1{fill:#B732C5;}
    </style>
    <g>	
        <g>
            <path id="Pfad_3524" class="st1" d="M25.9,11.5H6.4c-3.5,0-6.4,2.9-6.4,6.4V38c0,3.5,2.9,6.4,6.4,6.4h19.5c3.5,0,6.4-2.9,6.4-6.4
                V17.9C32.3,14.3,29.5,11.5,25.9,11.5 M30.1,38c0,2.3-1.9,4.1-4.1,4.1h-2.6c0.1-0.2,0.1-0.4,0.1-0.6v-6.6c0.7-0.6,1.1-1.4,1.1-2.3
                v-6.2c0-1.6-1.3-3-3-3c-1.6,0-3,1.3-3,3v6.2c0,0.9,0.4,1.7,1.1,2.3v6.6c0,0.2,0,0.4,0.1,0.6h-7.3c0.1-0.2,0.1-0.4,0.1-0.6v-6.6
                c0.7-0.6,1.1-1.4,1.1-2.3v-6.2c0-1.6-1.3-3-3-3c0,0,0,0,0,0c-1.6,0-3,1.3-3,3v6.2c0,0.9,0.4,1.7,1.1,2.3v6.6c0,0.2,0,0.4,0.1,0.6
                H6.4c-2.3,0-4.1-1.9-4.1-4.1V17.9c0-2.3,1.9-4.1,4.1-4.1h19.5c2.3,0,4.1,1.9,4.1,4.1V38z"/>
            <path id="Pfad_3525" class="st1"  d="M21.6,17.5c-1.5,0-2.7,1.2-2.7,2.7c0,0,0,0,0,0c0,1.5,1.2,2.7,2.7,2.7c0,0,0,0,0,0
                c1.5,0,2.7-1.2,2.7-2.7c0,0,0,0,0,0C24.3,18.7,23.1,17.5,21.6,17.5C21.6,17.5,21.6,17.5,21.6,17.5"/>
            <path id="Pfad_3526" class="st1" d="M10.7,17.5c-1.5,0-2.7,1.2-2.7,2.7c0,1.5,1.2,2.7,2.7,2.7c0,0,0,0,0,0c1.5,0,2.7-1.2,2.7-2.7
                c0,0,0,0,0,0C13.4,18.7,12.2,17.5,10.7,17.5C10.7,17.5,10.7,17.5,10.7,17.5"/>
        </g>
        <path class="st1" d="M15.3,6.3L15.3,6.3l-3.8-5.8h0c-0.2-0.3-0.6-0.6-1-0.6s-0.8,0.2-1,0.6h0L5.6,6.4l0,0C5.5,6.6,5.4,6.8,5.4,7
            c0,0.7,0.5,1.2,1.2,1.2c0,0,0,0,0,0h7.7c0,0,0,0,0,0c0.7,0,1.2-0.5,1.2-1.2C15.5,6.8,15.4,6.5,15.3,6.3z"/>
        <path class="st1" d="M26.9,1.2c0-0.7-0.5-1.2-1.2-1.2c0,0,0,0,0,0H18c0,0,0,0,0,0c-0.7,0-1.2,0.5-1.2,1.2c0,0.3,0.1,0.5,0.2,0.7
            l0,0l3.9,5.7h0c0.2,0.3,0.6,0.6,1,0.6c0.4,0,0.8-0.2,1-0.6h0l3.8-5.8l0,0C26.8,1.6,26.9,1.4,26.9,1.2z"/>
    </g>
</svg>
