<?xml version="1.0" encoding="utf-8"?>
<!-- Generator: Adobe Illustrator 26.0.3, SVG Export Plug-In . SVG Version: 6.00 Build 0)  -->
<svg version="1.1" id="Ebene_1" xmlns="http://www.w3.org/2000/svg" xmlns:xlink="http://www.w3.org/1999/xlink" x="0px" y="0px"
	 viewBox="0 0 214.4 44.4" style="enable-background:new 0 0 214.4 44.4;" xml:space="preserve">
<style type="text/css">
	.st0{fill:#fff;}
	.st1{fill:#fff;}
	.st2{fill:#fff;}
</style>
<g>
	<g>
		<g id="Gruppe_1424" transform="translate(40 69.42)">
			<g id="Gruppe_1423" transform="translate(49.359 -29.164)">
				<path id="Pfad_3492_00000127725008080607887590000009087090290882502538_" class="st0" d="M-40-25c0.9,0,1.8-0.1,2.6-0.4v-8.3
					c-0.8-0.3-1.7-0.4-2.6-0.4c-2.1,0-3.6,1.4-3.6,4.7C-43.6-26.1-42.2-25-40-25 M-40.1-35.8c0.9,0,1.8,0.1,2.7,0.3v-4.5
					c0-0.3,0.1-0.3,0.4-0.3h1.3c0.3,0,0.4,0,0.4,0.3v15.4c0,0.2-0.1,0.4-0.3,0.4c-1.5,0.6-3.1,0.9-4.7,0.8c-3.8,0-5.3-2.4-5.3-6.1
					C-45.6-32.7-43.9-35.8-40.1-35.8"/>
			</g>
		</g>
	</g>
	<g>
		<g id="Gruppe_1431" transform="translate(40 69.42)">
			<g id="Gruppe_1425" transform="translate(58.657 -27.7)">
				<path id="Pfad_3494_00000167373940084977677710000014256270447339571115_" class="st0" d="M-40-25h-1.2c-0.3,0-0.4,0-0.4-0.3
					v-11.3c0-0.3,0.1-0.3,0.4-0.3h1.2c0.3,0,0.4,0,0.4,0.3v11.3C-39.6-25-39.7-25-40-25 M-40.6-38.9c-0.7,0-1.3-0.6-1.3-1.3
					c0-0.7,0.6-1.3,1.3-1.3c0.7,0,1.3,0.6,1.3,1.3c0,0,0,0,0,0C-39.3-39.5-39.9-38.9-40.6-38.9C-40.6-38.9-40.6-38.9-40.6-38.9"/>
			</g>
			<g id="Gruppe_1426" transform="translate(69.828 -37.855)">
				<path id="Pfad_3495_00000007426356215351186910000012972601104255868805_" class="st0" d="M-40-25c-0.9-0.3-1.8-0.4-2.7-0.4
					c-2.1,0-3.6,1.3-3.6,4.6c0,3,1.3,4.5,3.4,4.5c1,0,1.9-0.2,2.9-0.5V-25z M-38.3-26.3c0.2,0.1,0.3,0.2,0.3,0.4v10.1
					c0,4.1-2,5.5-5.8,6c-0.2,0-0.3,0-0.4-0.3l-0.2-1.3c0-0.1,0.1-0.3,0.2-0.3c0,0,0,0,0,0c2.6-0.4,4-1.1,4-3.4v-0.1
					c-1,0.3-2,0.5-3.1,0.5c-3.6,0-5.2-2.5-5.2-6.1c0-3.7,1.7-6.4,5.6-6.4C-41.2-27.1-39.7-26.9-38.3-26.3"/>
			</g>
			<g id="Gruppe_1427" transform="translate(76.484 -27.7)">
				<path id="Pfad_3496_00000079447797158064861400000015176151875884193722_" class="st0" d="M-40-25h-1.2c-0.3,0-0.4,0-0.4-0.3
					v-11.3c0-0.3,0.1-0.3,0.4-0.3h1.2c0.3,0,0.4,0,0.4,0.3v11.3C-39.6-25-39.7-25-40-25 M-40.6-38.9c-0.7,0-1.3-0.6-1.3-1.3
					c0-0.7,0.6-1.3,1.3-1.3c0.7,0,1.3,0.6,1.3,1.3c0,0,0,0,0,0C-39.3-39.5-39.9-38.9-40.6-38.9C-40.6-38.9-40.6-38.9-40.6-38.9"/>
			</g>
			<g id="Gruppe_1428" transform="translate(84.492 -38.244)">
				<path id="Pfad_3497_00000014612502521666008810000001508299734612443326_" class="st0" d="M-40-25c-0.9,0-1.8,0.1-2.6,0.4v8.2
					c0.9,0.3,1.8,0.4,2.7,0.4c2.1,0,3.5-1.2,3.5-4.6S-37.8-25-40-25 M-39.7-14.2c-1,0-2-0.1-3-0.4v4.4c0,0.3-0.1,0.3-0.3,0.3h-1.3
					c-0.2,0-0.4,0-0.4-0.3v-15.3c0-0.2,0.1-0.4,0.3-0.4c1.5-0.6,3.1-0.9,4.7-0.8c3.7,0,5.3,2.7,5.3,6.2
					C-34.3-17-36.1-14.2-39.7-14.2"/>
			</g>
			<g id="Gruppe_1429" transform="translate(99.684 -33.601)">
				<path id="Pfad_3498_00000014625964552198079730000016809945270804409243_" class="st0" d="M-40-25h-2.7c-1.1,0-3.1,0.2-3.1,2.4
					c0,1.7,1.3,2.1,2.9,2.1c1,0,1.9-0.1,2.9-0.4V-25z M-38.3-19.6c-1.4,0.6-3,0.8-4.5,0.8c-3.9,0-4.9-1.8-4.9-3.8
					c0-2.1,1.4-4.1,5-4.1h2.8v-0.5c0-1.4-0.5-2.4-2.7-2.4c-1.1,0-2.1,0.2-3.2,0.5c-0.3,0.1-0.4,0.1-0.5-0.2l-0.3-1
					c-0.1-0.1,0-0.3,0.1-0.4c0,0,0,0,0.1,0c1.3-0.5,2.7-0.7,4-0.7c3,0,4.4,1.4,4.4,4v7.2C-37.9-20-38.1-19.7-38.3-19.6"/>
			</g>
			<g id="Gruppe_1430" transform="translate(111.587 -36.917)">
				<path id="Pfad_3499_00000172410535466358889950000010681569833764799137_" class="st0" d="M-40-25c-0.1,0.2-0.3,0.1-0.4,0
					c-0.9-0.8-2-1.3-3.2-1.3c-0.5,0-0.9,0.1-1.3,0.1v10c0,0.3-0.1,0.3-0.4,0.3h-1.3c-0.2,0-0.3,0-0.3-0.3v-10.1
					c0-1.1,0.3-1.6,1.4-1.7C-45-28-44.4-28-43.8-28c1.7-0.1,3.3,0.5,4.6,1.6c0.1,0.1,0.1,0.2,0,0.3c0,0,0,0,0,0L-40-25z"/>
			</g>
		</g>
	</g>
	<g>
		<g id="Gruppe_1434" transform="translate(40 69.42)">
			<g id="Gruppe_1432" transform="translate(120.947 -33.601)">
				<path id="Pfad_3501_00000048480746628443570300000001167617859271851937_" class="st0" d="M-40-25h-2.7c-1.1,0-3.1,0.2-3.1,2.4
					c0,1.7,1.3,2.1,2.9,2.1c1,0,1.9-0.1,2.9-0.4V-25z M-38.3-19.6c-1.4,0.6-3,0.8-4.5,0.8c-3.9,0-4.9-1.8-4.9-3.8
					c0-2.1,1.4-4.1,5-4.1h2.8v-0.5c0-1.4-0.5-2.4-2.7-2.4c-1.1,0-2.1,0.2-3.2,0.5c-0.3,0.1-0.4,0.1-0.5-0.2l-0.3-1
					c-0.1-0.1,0-0.3,0.1-0.4c0,0,0,0,0.1,0c1.3-0.5,2.7-0.7,4-0.7c3,0,4.4,1.4,4.4,4v7.2C-37.9-20-38.1-19.7-38.3-19.6"/>
			</g>
			<g id="Gruppe_1433" transform="translate(49.039 -10.842)">
				<path id="Pfad_3502_00000026879457628747765310000010761513222352284586_" class="st1" d="M-40-25c-2,0-3.1,1.7-3.2,3.6h6.3
					C-36.9-23.3-37.5-25-40-25 M-35-21.6c0,1.4-0.8,1.8-1.7,1.8h-6.6c0,2.9,1.6,3.9,3.6,3.9c0.9,0,1.9-0.2,2.7-0.6
					c0.2-0.1,0.3-0.1,0.4,0.1l0.5,1c0.1,0.2,0.1,0.4-0.1,0.5c-1.1,0.6-2.4,0.9-3.6,0.8c-3.4,0-5.5-1.9-5.5-6.2c0-4,2.3-6.3,5.3-6.3
					C-36.5-26.7-35-24.6-35-21.6"/>
			</g>
		</g>
	</g>
	<g>
		<g id="Gruppe_1449" transform="translate(40 69.42)">
			<g id="Gruppe_1435" transform="translate(60.121 -0.274)">
				<path id="Pfad_3504_00000098908025825428989670000011783832012914399370_" class="st1" d="M-40-25c-0.6,0.2-1.1,0.3-1.7,0.3
					c-1.6,0-2.1-0.7-2.1-2.3v-14.3c0-0.3,0.1-0.3,0.4-0.3h1.3c0.3,0,0.4,0,0.4,0.3v13.8c0,0.9,0.2,1.1,0.8,1.1c0.3,0,0.6,0,0.8,0
					c0.2,0,0.3,0,0.3,0.2l0.1,0.9C-39.7-25.2-39.7-25.1-40-25"/>
			</g>
			<g id="Gruppe_1436" transform="translate(66.621 -10.842)">
				<path id="Pfad_3505_00000012442389329450957830000002791111753117790121_" class="st1" d="M-40-25c-2,0-3.1,1.7-3.2,3.6h6.3
					C-36.9-23.3-37.5-25-40-25 M-35-21.6c0,1.4-0.8,1.8-1.7,1.8h-6.6c0,2.9,1.6,3.9,3.6,3.9c0.9,0,1.9-0.2,2.7-0.6
					c0.2-0.1,0.3-0.1,0.4,0.1l0.5,1c0.1,0.2,0.1,0.4-0.1,0.5c-1.1,0.6-2.4,0.9-3.6,0.8c-3.4,0-5.5-1.9-5.5-6.2c0-4,2.3-6.3,5.3-6.3
					C-36.5-26.7-35-24.6-35-21.6"/>
			</g>
			<g id="Gruppe_1437" transform="translate(79.531 -1.143)">
				<path id="Pfad_3506_00000086680439369890742000000006473525050515286681_" class="st1" d="M-40-25c-0.3,0.7-0.5,1-1.1,1H-42
					c-0.6,0-0.9-0.2-1.2-1L-47-35.9c0-0.1,0-0.2,0.2-0.2h1.5c0.2,0,0.3,0.1,0.3,0.2l2.1,6.3l1.1,3.7h0.1l1.1-3.7l2.1-6.4
					c0-0.1,0.1-0.2,0.3-0.2h1.5c0.2,0,0.2,0.1,0.2,0.2L-40-25z"/>
			</g>
			<g id="Gruppe_1438" transform="translate(91.885 -6.153)">
				<path id="Pfad_3507_00000112598847402873645050000005355555818853948316_" class="st1" d="M-40-25h-2.7c-1.1,0-3.1,0.2-3.1,2.4
					c0,1.7,1.3,2.1,2.9,2.1c1,0,1.9-0.1,2.9-0.4V-25z M-38.3-19.6c-1.4,0.6-3,0.8-4.5,0.8c-3.9,0-4.9-1.8-4.9-3.8
					c0-2.1,1.4-4.1,5-4.1h2.8v-0.5c0-1.4-0.5-2.4-2.7-2.4c-1.1,0-2.1,0.2-3.2,0.5c-0.3,0.1-0.4,0.1-0.5-0.2l-0.3-1
					c-0.1-0.1,0-0.3,0.1-0.4c0,0,0,0,0.1,0c1.3-0.5,2.7-0.7,4-0.7c3,0,4.4,1.4,4.4,4v7.2C-37.9-20-38.1-19.7-38.3-19.6"/>
			</g>
			<g id="Gruppe_1439" transform="translate(95.822 -10.681)">
				<path id="Pfad_3508_00000039099380106004790620000012675091428563295618_" class="st1" d="M-40-25c-0.3,0-0.3-0.1-0.3-0.3V-26
					c0-0.2,0.1-0.3,0.3-0.4l1.8-0.3l0.4-2.2c0-0.3,0.2-0.3,0.4-0.5l0.8-0.3c0.2,0,0.3,0,0.3,0.3v2.8h2.5c0.3,0,0.3,0.1,0.3,0.3v0.9
					c0,0.2,0,0.3-0.3,0.3h-2.5v7.4c0,1.1,0.4,1.5,1.5,1.5c0.4,0,1.3-0.1,1.8-0.2c0.3,0,0.3,0,0.3,0.2l0.2,1c0,0.2,0.1,0.3-0.2,0.4
					c-0.8,0.2-1.6,0.3-2.4,0.3c-2.4,0-3.2-1-3.2-3.1V-25H-40z"/>
			</g>
			<g id="Gruppe_1440" transform="translate(109.587 -10.842)">
				<path id="Pfad_3509_00000183941934099189735190000017017886817666197133_" class="st1" d="M-40-25c-2.3,0-3.4,2.1-3.4,4.5
					c0,2.7,0.8,4.6,3.3,4.6c2.6,0,3.4-2.3,3.4-4.6C-36.7-22.8-37.3-25-40-25 M-40.1-14.2c-3.4,0-5.3-2.2-5.3-6.2
					c0-4,2.3-6.3,5.4-6.3c3.5,0,5.3,2.3,5.3,6.2C-34.7-16.4-36.6-14.2-40.1-14.2"/>
			</g>
			<g id="Gruppe_1441" transform="translate(124.292 -9.469)">
				<path id="Pfad_3510_00000164473626727517676200000002952120682939219351_" class="st1" d="M-40-25c-0.1,0.2-0.3,0.1-0.4,0
					c-0.9-0.8-2-1.3-3.2-1.3c-0.5,0-0.9,0.1-1.3,0.1v10c0,0.3-0.1,0.3-0.4,0.3h-1.3c-0.2,0-0.3,0-0.3-0.3v-10.1
					c0-1.1,0.3-1.6,1.4-1.7C-45-28-44.4-28-43.8-28c1.7-0.1,3.3,0.5,4.6,1.6c0.1,0.1,0.1,0.2,0,0.3c0,0,0,0,0,0L-40-25z"/>
			</g>
			<g id="Gruppe_1442" transform="translate(133.651 -6.153)">
				<path id="Pfad_3511_00000173152673251186842800000007589997252763383462_" class="st1" d="M-40-25h-2.7c-1.1,0-3.1,0.2-3.1,2.4
					c0,1.7,1.3,2.1,2.9,2.1c1,0,1.9-0.1,2.9-0.4V-25z M-38.3-19.6c-1.4,0.6-3,0.8-4.5,0.8c-3.9,0-4.9-1.8-4.9-3.8
					c0-2.1,1.4-4.1,5-4.1h2.8v-0.5c0-1.4-0.5-2.4-2.7-2.4c-1.1,0-2.1,0.2-3.2,0.5c-0.3,0.1-0.4,0.1-0.5-0.2l-0.3-1
					c-0.1-0.1,0-0.3,0.1-0.4c0,0,0,0,0.1,0c1.3-0.5,2.7-0.7,4-0.7c3,0,4.4,1.4,4.4,4v7.2C-37.9-20-38.1-19.7-38.3-19.6"/>
			</g>
			<g id="Gruppe_1443" transform="translate(145.554 -9.469)">
				<path id="Pfad_3512_00000161591775875092473500000008958640390982638491_" class="st1" d="M-40-25c-0.1,0.2-0.3,0.1-0.4,0
					c-0.9-0.8-2-1.3-3.2-1.3c-0.5,0-0.9,0.1-1.3,0.1v10c0,0.3-0.1,0.3-0.4,0.3h-1.3c-0.2,0-0.3,0-0.3-0.3v-10.1
					c0-1.1,0.3-1.6,1.4-1.7C-45-28-44.4-28-43.8-28c1.7-0.1,3.3,0.5,4.6,1.6c0.1,0.1,0.1,0.2,0,0.3c0,0,0,0,0,0L-40-25z"/>
			</g>
			<g id="Gruppe_1444" transform="translate(155.495 -2.379)">
				<path id="Pfad_3513_00000055699273663564165460000008040300427238290335_" class="st1" d="M-40-25c0.3-0.2,0.4,0,0.5,0.1l0.5,1
					c0.1,0.1,0.1,0.3,0,0.4c0,0-0.1,0-0.1,0.1c-1.2,0.6-2.5,0.9-3.9,0.8c-3.3,0-5.2-2.1-5.2-6.1c0-3.9,2.1-6.4,5.4-6.4
					c1.2,0,2.3,0.2,3.4,0.8c0.2,0.1,0.3,0.3,0.1,0.5l-0.5,0.9c-0.1,0.2-0.2,0.3-0.4,0.1c-0.8-0.4-1.7-0.6-2.6-0.6
					c-2.4,0-3.5,2.2-3.5,4.6s0.8,4.4,3.5,4.4C-41.8-24.3-40.9-24.6-40-25"/>
			</g>
			<g id="Gruppe_1445" transform="translate(168.3 -0.595)">
				<path id="Pfad_3514_00000073686737185200331170000006893657604844994487_" class="st1" d="M-40-25c0,0.3-0.1,0.3-0.4,0.3h-1.3
					c-0.3,0-0.4,0-0.4-0.3v-6.5c0-2.5-1-3.7-3.1-3.7c-1,0-1.9,0.1-2.8,0.5v9.7c0,0.3-0.1,0.3-0.4,0.3h-1.3c-0.2,0-0.4,0-0.4-0.3v-16
					c0-0.3,0.1-0.3,0.4-0.3h1.3c0.3,0,0.4,0,0.4,0.3v4.6c1-0.4,2.1-0.5,3.1-0.5c3.4,0,4.8,2.1,4.8,5.4V-25z"/>
			</g>
			<g id="Gruppe_1446" transform="translate(172.879 -0.252)">
				<path id="Pfad_3515_00000150084530131196784290000016352546898572907392_" class="st1" d="M-40-25h-1.2c-0.3,0-0.4,0-0.4-0.3
					v-11.3c0-0.3,0.1-0.3,0.4-0.3h1.2c0.3,0,0.4,0,0.4,0.3v11.3C-39.6-25-39.7-25-40-25 M-40.6-38.9c-0.7,0-1.3-0.6-1.3-1.3
					c0-0.7,0.6-1.3,1.3-1.3c0.7,0,1.3,0.6,1.3,1.3c0,0,0,0,0,0C-39.3-39.5-39.9-38.9-40.6-38.9C-40.6-38.9-40.6-38.9-40.6-38.9"/>
			</g>
			<g id="Gruppe_1447" transform="translate(175.548 -10.681)">
				<path id="Pfad_3516_00000164514151490652059820000012371240017891953283_" class="st1" d="M-40-25c-0.3,0-0.3-0.1-0.3-0.3V-26
					c0-0.2,0.1-0.3,0.3-0.4l1.8-0.3l0.4-2.2c0-0.3,0.2-0.3,0.4-0.5l0.8-0.3c0.2,0,0.3,0,0.3,0.3v2.8h2.5c0.3,0,0.3,0.1,0.3,0.3v0.9
					c0,0.2,0,0.3-0.3,0.3h-2.5v7.4c0,1.1,0.4,1.5,1.5,1.5c0.4,0,1.3-0.1,1.8-0.2c0.3,0,0.3,0,0.3,0.2l0.2,1c0,0.2,0.1,0.3-0.2,0.4
					c-0.8,0.2-1.6,0.3-2.4,0.3c-2.4,0-3.2-1-3.2-3.1V-25H-40z"/>
			</g>
			<g id="Gruppe_1448" transform="translate(189.244 -10.842)">
				<path id="Pfad_3517_00000120539311432544090350000015349554024452743862_" class="st1" d="M-40-25c-2,0-3.1,1.7-3.2,3.6h6.3
					C-36.9-23.3-37.5-25-40-25 M-35-21.6c0,1.4-0.8,1.8-1.7,1.8h-6.6c0,2.9,1.6,3.9,3.6,3.9c0.9,0,1.9-0.2,2.7-0.6
					c0.2-0.1,0.3-0.1,0.4,0.1l0.5,1c0.1,0.2,0.1,0.4-0.1,0.5c-1.1,0.6-2.4,0.9-3.6,0.8c-3.4,0-5.5-1.9-5.5-6.2c0-4,2.3-6.3,5.3-6.3
					C-36.5-26.7-35-24.6-35-21.6"/>
			</g>
		</g>
	</g>
	<g>
		<g id="Gruppe_1452" transform="translate(40 69.42)">
			<g id="Gruppe_1450" transform="translate(204.297 -2.379)">
				<path id="Pfad_3519_00000008140066924177515590000006468889330651268522_" class="st1" d="M-40-25c0.3-0.2,0.4,0,0.5,0.1l0.5,1
					c0.1,0.1,0.1,0.3,0,0.4c0,0-0.1,0-0.1,0.1c-1.2,0.6-2.5,0.9-3.9,0.8c-3.3,0-5.2-2.1-5.2-6.1c0-3.9,2.1-6.4,5.4-6.4
					c1.2,0,2.3,0.2,3.4,0.8c0.2,0.1,0.3,0.3,0.1,0.5l-0.5,0.9c-0.1,0.2-0.2,0.3-0.4,0.1c-0.8-0.4-1.7-0.6-2.6-0.6
					c-2.4,0-3.5,2.2-3.5,4.6s0.8,4.4,3.5,4.4C-41.8-24.3-40.9-24.6-40-25"/>
			</g>
			<g id="Gruppe_1451" transform="translate(206.884 -10.681)">
				<path id="Pfad_3520_00000162320194486399349260000000106388763049474695_" class="st1" d="M-40-25c-0.3,0-0.3-0.1-0.3-0.3V-26
					c0-0.2,0.1-0.3,0.3-0.4l1.8-0.3l0.4-2.2c0-0.3,0.2-0.3,0.4-0.5l0.8-0.3c0.2,0,0.3,0,0.3,0.3v2.8h2.5c0.3,0,0.3,0.1,0.3,0.3v0.9
					c0,0.2,0,0.3-0.3,0.3h-2.5v7.4c0,1.1,0.4,1.5,1.5,1.5c0.4,0,1.3-0.1,1.8-0.2c0.3,0,0.3,0,0.3,0.2l0.2,1c0,0.2,0.1,0.3-0.2,0.4
					c-0.8,0.2-1.6,0.3-2.4,0.3c-2.4,0-3.2-1-3.2-3.1V-25H-40z"/>
			</g>
		</g>
	</g>
	<g>
		<g id="Gruppe_1454" transform="translate(40 69.42)">
			<g id="Gruppe_1453" transform="translate(125.313 -42.871)">
				<path id="Pfad_3522_00000042010831420855576490000004439878115431302325_" class="st0" d="M-40-25h-0.3v0.4h0.3
					c0.1,0,0.2-0.1,0.2-0.2c0,0,0,0,0,0C-39.8-24.9-39.9-25-40-25C-40-25-40-25-40-25 M-39.3-23.6C-39.3-23.5-39.3-23.5-39.3-23.6
					l-0.3,0.1c0,0-0.1,0-0.1-0.1c0-0.1-0.1-0.4-0.1-0.5c0-0.1-0.1-0.2-0.3-0.2c0,0,0,0,0,0h-0.2v0.7c0,0.1,0,0.1-0.1,0.1h-0.3
					c0,0-0.1,0-0.1-0.1v-1.6c0-0.1,0.1-0.2,0.2-0.2h0.6c0.3,0,0.6,0.2,0.6,0.5c0,0,0,0.1,0,0.1c0,0.2-0.1,0.4-0.3,0.5v0
					c0.1,0,0.2,0.1,0.2,0.3L-39.3-23.6z M-40.1-25.7c-0.7,0-1.3,0.6-1.3,1.3c0,0,0,0,0,0c0,0.7,0.6,1.3,1.3,1.3c0,0,0,0,0,0
					c0.7,0,1.3-0.5,1.3-1.3c0,0,0,0,0-0.1C-38.8-25.1-39.3-25.7-40.1-25.7C-40.1-25.7-40.1-25.7-40.1-25.7 M-40.1-22.7
					c-0.9,0-1.7-0.7-1.7-1.6c0,0,0,0,0-0.1c0-0.9,0.7-1.7,1.7-1.7c0,0,0,0,0.1,0c0.9,0,1.7,0.7,1.7,1.6c0,0,0,0.1,0,0.1
					C-38.4-23.5-39.1-22.7-40.1-22.7C-40.1-22.7-40.1-22.7-40.1-22.7"/>
			</g>
		</g>
	</g>
	<g>
		<path id="Pfad_3524" class="st1" d="M25.9,11.5H6.4c-3.5,0-6.4,2.9-6.4,6.4V38c0,3.5,2.9,6.4,6.4,6.4h19.5c3.5,0,6.4-2.9,6.4-6.4
			V17.9C32.3,14.3,29.5,11.5,25.9,11.5 M30.1,38c0,2.3-1.9,4.1-4.1,4.1h-2.6c0.1-0.2,0.1-0.4,0.1-0.6v-6.6c0.7-0.6,1.1-1.4,1.1-2.3
			v-6.2c0-1.6-1.3-3-3-3c-1.6,0-3,1.3-3,3v6.2c0,0.9,0.4,1.7,1.1,2.3v6.6c0,0.2,0,0.4,0.1,0.6h-7.3c0.1-0.2,0.1-0.4,0.1-0.6v-6.6
			c0.7-0.6,1.1-1.4,1.1-2.3v-6.2c0-1.6-1.3-3-3-3c0,0,0,0,0,0c-1.6,0-3,1.3-3,3v6.2c0,0.9,0.4,1.7,1.1,2.3v6.6c0,0.2,0,0.4,0.1,0.6
			H6.4c-2.3,0-4.1-1.9-4.1-4.1V17.9c0-2.3,1.9-4.1,4.1-4.1h19.5c2.3,0,4.1,1.9,4.1,4.1V38z"/>
		<path id="Pfad_3525" class="st1" d="M21.6,17.5c-1.5,0-2.7,1.2-2.7,2.7c0,0,0,0,0,0c0,1.5,1.2,2.7,2.7,2.7c0,0,0,0,0,0
			c1.5,0,2.7-1.2,2.7-2.7c0,0,0,0,0,0C24.3,18.7,23.1,17.5,21.6,17.5C21.6,17.5,21.6,17.5,21.6,17.5"/>
		<path id="Pfad_3526" class="st1" d="M10.7,17.5c-1.5,0-2.7,1.2-2.7,2.7c0,1.5,1.2,2.7,2.7,2.7c0,0,0,0,0,0c1.5,0,2.7-1.2,2.7-2.7
			c0,0,0,0,0,0C13.4,18.7,12.2,17.5,10.7,17.5C10.7,17.5,10.7,17.5,10.7,17.5"/>
	</g>
	<path class="st2" d="M15.3,6.3L15.3,6.3l-3.8-5.8h0c-0.2-0.3-0.6-0.6-1-0.6s-0.8,0.2-1,0.6h0L5.6,6.4l0,0C5.5,6.6,5.4,6.8,5.4,7
		c0,0.7,0.5,1.2,1.2,1.2c0,0,0,0,0,0h7.7c0,0,0,0,0,0c0.7,0,1.2-0.5,1.2-1.2C15.5,6.8,15.4,6.5,15.3,6.3z"/>
	<path class="st1" d="M26.9,1.2c0-0.7-0.5-1.2-1.2-1.2c0,0,0,0,0,0H18c0,0,0,0,0,0c-0.7,0-1.2,0.5-1.2,1.2c0,0.3,0.1,0.5,0.2,0.7
		l0,0l3.9,5.7h0c0.2,0.3,0.6,0.6,1,0.6c0.4,0,0.8-0.2,1-0.6h0l3.8-5.8l0,0C26.8,1.6,26.9,1.4,26.9,1.2z"/>
</g>
</svg>
