<svg xmlns="http://www.w3.org/2000/svg" xmlns:xlink="http://www.w3.org/1999/xlink" version="1.1" viewBox="0 0 256 256" xml:space="preserve">
<g transform="matrix(0 16 -16 0 200 200)"  >
<path transform=" translate(-12.5, -12.5)" d="M 12.5 9 C 14.432996624407778 9 16 10.567003375592222 16 12.5 C 16 14.432996624407776 14.432996624407778 16 12.500000000000002 16 C 10.567003375592222 16 9 14.432996624407778 9 12.5 C 9 10.567003375592222 10.567003375592222 9 12.5 9 M 12.854 14.854 L 14.354 13.354 C 14.5495088014401 13.158491198559899 14.5495088014401 12.8415088014401 14.354 12.645999999999999 C 14.158491198559899 12.450491198559899 13.8415088014401 12.450491198559899 13.645999999999999 12.645999999999999 L 12.999999999999998 13.293 L 12.999999999999998 10.5 C 12.999999999999998 10.223857625084603 12.776142374915395 10 12.499999999999998 10 C 12.223857625084602 10 11.999999999999998 10.223857625084603 11.999999999999998 10.5 L 11.999999999999998 13.293 L 11.353999999999997 12.645999999999999 C 11.158491198559897 12.450491198559899 10.841508801440098 12.450491198559899 10.645999999999997 12.645999999999999 C 10.450491198559897 12.8415088014401 10.450491198559897 13.158491198559899 10.645999999999997 13.354 L 12.145999999999997 14.854 C 12.239804263010164 14.948041700687634 12.367172739141756 15.000893783685418 12.499999999999996 15.000893783685418 C 12.632827260858239 15.000893783685418 12.76019573698983 14.948041700687634 12.853999999999997 14.854" stroke-linecap="round" />
</g>
<g transform="matrix(16 0 0 16 128 128)"  >
<path transform=" translate(-8, -8)" d="M 2 1 C 2 0.44771525016920655 2.4477152501692068 0 3 0 L 13 0 C 13.552284749830793 0 14 0.4477152501692063 14 0.9999999999999998 L 14 7.5 C 14 7.776142374915397 13.776142374915397 8 13.5 8 C 13.223857625084603 8 13 7.776142374915397 13 7.5 L 13 1 L 3 1 L 3 15 L 6 15 L 6 12.5 C 6 12.223857625084603 6.223857625084603 12 6.5 12 L 8 12 L 8 16 L 3 16 C 2.4477152501692068 16 2 15.552284749830793 2 15 z" stroke-linecap="round" />
</g>
<g transform="matrix(16 0 0 16 128 96)"  >
<path transform=" translate(-8, -6)" d="M 4.5 2 C 4.223857625084603 2 4 2.2238576250846034 4 2.5 L 4 3.5 C 4 3.7761423749153966 4.223857625084603 4 4.5 4 L 5.5 4 C 5.776142374915397 4 6 3.7761423749153966 6 3.5 L 6 2.5 C 6 2.2238576250846034 5.776142374915397 2 5.5 2 z M 7.5 2 C 7.223857625084603 2 7 2.2238576250846034 7 2.5 L 7 3.5 C 7 3.7761423749153966 7.223857625084603 4 7.5 4 L 8.5 4 C 8.776142374915397 4 9 3.7761423749153966 9 3.5 L 9 2.5 C 9 2.2238576250846034 8.776142374915397 2 8.5 2 z M 10.5 2 C 10.223857625084603 2 10 2.2238576250846034 10 2.5 L 10 3.5 C 10 3.7761423749153966 10.223857625084603 4 10.5 4 L 11.5 4 C 11.776142374915397 4 12 3.7761423749153966 12 3.5 L 12 2.5 C 12 2.2238576250846034 11.776142374915397 2 11.5 2 z M 4.5 5 C 4.223857625084603 5 4 5.223857625084603 4 5.5 L 4 6.5 C 4 6.776142374915397 4.223857625084603 7 4.5 7 L 5.5 7 C 5.776142374915397 7 6 6.776142374915397 6 6.5 L 6 5.5 C 6 5.223857625084603 5.776142374915397 5 5.5 5 z M 7.5 5 C 7.223857625084603 5 7 5.223857625084603 7 5.5 L 7 6.5 C 7 6.776142374915397 7.223857625084603 7 7.5 7 L 8.5 7 C 8.776142374915397 7 9 6.776142374915397 9 6.5 L 9 5.5 C 9 5.223857625084603 8.776142374915397 5 8.5 5 z M 10.5 5 C 10.223857625084603 5 10 5.223857625084603 10 5.5 L 10 6.5 C 10 6.776142374915397 10.223857625084603 7 10.5 7 L 11.5 7 C 11.776142374915397 7 12 6.776142374915397 12 6.5 L 12 5.5 C 12 5.223857625084603 11.776142374915397 5 11.5 5 z M 4.5 8 C 4.223857625084603 8 4 8.223857625084603 4 8.5 L 4 9.5 C 4 9.776142374915397 4.223857625084603 10 4.5 10 L 5.5 10 C 5.776142374915397 10 6 9.776142374915397 6 9.5 L 6 8.5 C 6 8.223857625084603 5.776142374915397 8 5.5 8 z M 7.5 8 C 7.223857625084603 8 7 8.223857625084603 7 8.5 L 7 9.5 C 7 9.776142374915397 7.223857625084603 10 7.5 10 L 8.5 10 C 8.776142374915397 10 9 9.776142374915397 9 9.5 L 9 8.5 C 9 8.223857625084603 8.776142374915397 8 8.5 8 z" stroke-linecap="round" />
</g>
</svg>