<svg version="1.1" id="Ebene_1" xmlns="http://www.w3.org/2000/svg" xmlns:xlink="http://www.w3.org/1999/xlink" x="0px" y="0px"
	 viewBox="0 0 21.4 29.1" style="enable-background:new 0 0 21.4 29.1;" xml:space="preserve">
<g>
	<path d="M0,14.7c0,0.3,0.2,0.5,0.5,0.5h9.8l-3.1,3.1C7,18.5,7,18.8,7.1,19s0.5,0.2,0.7,0l0,0l4-4
		c0.2-0.2,0.2-0.5,0-0.7c0,0,0,0,0,0l-4-4c-0.2-0.2-0.5-0.2-0.7,0S7,10.8,7.1,11l3.1,3.1H0.5C0.2,14.2,0,14.4,0,14.7z"/>
	<path d="M21.4,0H2.1v11c0,0,0,0,0,0c0,0.4,0.3,0.7,0.7,0.7s0.7-0.3,0.7-0.7c0,0,0,0,0,0h0V1.3h16.7v26.6H3.4v-9.8
		c0,0,0,0,0,0c0-0.4-0.3-0.7-0.7-0.7s-0.7,0.3-0.7,0.7c0,0,0,0,0,0v10.7h0v0.3h19.3v-0.3h0V0z"/>
</g>
</svg>
