<?xml version="1.0" encoding="utf-8"?>
<!-- Generator: Adobe Illustrator 26.0.3, SVG Export Plug-In . SVG Version: 6.00 Build 0)  -->
<svg version="1.1" id="Ebene_1" xmlns="http://www.w3.org/2000/svg" xmlns:xlink="http://www.w3.org/1999/xlink" x="0px" y="0px"
	 viewBox="0 0 56.8 80" style="enable-background:new 0 0 56.8 80;" xml:space="preserve">
<style type="text/css">
	.st0{clip-path:url(#SVGID_00000043434366127390338820000005495835642934621331_);}
	.st1{fill:#EB0E58;}
</style>
<g>
	<defs>
		<rect id="SVGID_1_" width="56.8" height="80"/>
	</defs>
	<clipPath id="SVGID_00000023967500843957732140000009055540919768611746_">
		<use xlink:href="#SVGID_1_"  style="overflow:visible;"/>
	</clipPath>
	<g id="Gruppe_3501" style="clip-path:url(#SVGID_00000023967500843957732140000009055540919768611746_);">
		<path id="Pfad_4178" class="st1" d="M21.4,0L0,19.5V80h56.8V0H21.4z M20.1,6.8v11.6H7.4L20.1,6.8z M52.6,75.8H4.2v-54h17.7
			c1,0,1.7-0.8,1.7-1.7c0,0,0,0,0,0V4.2h29.1V75.8z"/>
		<path id="Pfad_4179" class="st1" d="M23.4,53.9v-2.1c0-1.4,0.3-2.8,1-4c0.9-1.3,2.1-2.4,3.5-3.2c1-0.6,2-1.4,2.8-2.2
			c0.6-0.6,0.9-1.4,0.9-2.3c0-0.7-0.3-1.3-0.9-1.6c-0.7-0.4-1.6-0.6-2.4-0.6c-3,0.2-6,1.1-8.6,2.6l-3.4-6.6
			c3.8-2.3,8.2-3.4,12.7-3.5c3.6,0,6.5,0.8,8.5,2.4c2,1.5,3.2,4,3.1,6.5c0,1.8-0.4,3.6-1.4,5.1c-1.2,1.7-2.7,3.1-4.4,4.1
			c-1.2,0.7-2.2,1.5-3.2,2.4c-0.4,0.5-0.7,1.2-0.6,1.8v1.2L23.4,53.9z M22.4,62.5c-0.1-1.3,0.4-2.5,1.3-3.5c1.1-0.9,2.4-1.3,3.8-1.2
			c1.4-0.1,2.7,0.3,3.7,1.2c0.9,0.9,1.4,2.2,1.3,3.4c0.1,1.3-0.4,2.5-1.4,3.4c-1,0.9-2.3,1.3-3.7,1.2c-1.4,0.1-2.7-0.3-3.8-1.2
			C22.8,65,22.3,63.8,22.4,62.5"/>
	</g>
</g>
</svg>
