<?xml version="1.0" encoding="utf-8"?>
<!-- Generator: Adobe Illustrator 26.1.0, SVG Export Plug-In . SVG Version: 6.00 Build 0)  -->
<svg version="1.1" id="Ebene_1" xmlns="http://www.w3.org/2000/svg" xmlns:xlink="http://www.w3.org/1999/xlink" x="0px" y="0px"
	 viewBox="0 0 40 40" style="enable-background:new 0 0 40 40;" xml:space="preserve">
<style type="text/css">
	.st0{clip-path:url(#SVGID_00000181081744057167637130000007353477775958631613_);}
	.st1{fill:#ffffff;}
	.st2{clip-path:url(#SVGID_00000143603630051491900610000015002305423242292405_);}
</style>
<g id="Gruppe_3856" transform="translate(0 0)">
	<g id="Gruppe_3851" transform="translate(0 0.001)">
		<g>
			<defs>
				<rect id="SVGID_1_" y="0" width="40" height="40"/>
			</defs>
			<clipPath id="SVGID_00000085249765896235322120000014480454093779548563_">
				<use xlink:href="#SVGID_1_"  style="overflow:visible;"/>
			</clipPath>
			<g id="Gruppe_3850" style="clip-path:url(#SVGID_00000085249765896235322120000014480454093779548563_);">
				<path id="Pfad_4445" class="st1" d="M19.7,7.3h0.9c0.1,0,0.2,0.1,0.2,0.2v25.2c0,0.1-0.1,0.2-0.2,0.2h-0.9
					c-0.1,0-0.2-0.1-0.2-0.2c0,0,0,0,0,0l0,0V7.5C19.5,7.4,19.6,7.3,19.7,7.3L19.7,7.3"/>
				<path id="Pfad_4446" class="st1" d="M31.1,27.1H24c-0.9,0-1.5-0.7-1.5-1.5V15.3c0-0.9,0.7-1.5,1.5-1.5h7.1
					c0.9,0,1.5,0.7,1.5,1.5v10.3C32.6,26.5,31.9,27.1,31.1,27.1 M24,15c-0.2,0-0.3,0.2-0.3,0.3v10.3c0,0.2,0.2,0.3,0.3,0.3h7.1
					c0.2,0,0.3-0.2,0.3-0.3V15.3c0-0.2-0.2-0.3-0.3-0.3c0,0,0,0,0,0H24L24,15z"/>
				<path id="Pfad_4447" class="st1" d="M16.3,26.8H9.2c-0.9,0-1.5-0.7-1.5-1.5V15c0-0.9,0.7-1.5,1.5-1.5h7.1c0.9,0,1.5,0.7,1.5,1.5
					v10.3C17.8,26.1,17.1,26.8,16.3,26.8"/>
				<path id="Pfad_4448" class="st1" d="M30,10.7L30,10.7l-2-3c-0.2-0.3-0.6-0.4-0.9-0.2c-0.1,0.1-0.2,0.1-0.2,0.2l-2,3l0,0
					c-0.2,0.3-0.1,0.7,0.2,0.9c0.1,0.1,0.2,0.1,0.3,0.1h4c0.3,0,0.6-0.3,0.6-0.6C30.2,11,30.1,10.8,30,10.7"/>
				<path id="Pfad_4449" class="st1" d="M15.3,29.5L15.3,29.5c0.1-0.1,0.1-0.2,0.1-0.3c0-0.3-0.3-0.6-0.6-0.6c0,0,0,0,0,0h-4
					c-0.3,0-0.6,0.3-0.6,0.6c0,0.1,0,0.3,0.1,0.4v0l2,3c0.2,0.3,0.6,0.4,0.9,0.2c0.1-0.1,0.2-0.1,0.2-0.2L15.3,29.5L15.3,29.5z"/>
			</g>
		</g>
	</g>
	<g id="Gruppe_3853" transform="translate(0 0)">
		<g>
			<defs>
				<rect id="SVGID_00000149380578693394191030000009163117045597856183_" width="40" height="40"/>
			</defs>
			<clipPath id="SVGID_00000013873982255441604360000003039510464420750258_">
				<use xlink:href="#SVGID_00000149380578693394191030000009163117045597856183_"  style="overflow:visible;"/>
			</clipPath>
			<g id="Gruppe_3852" style="clip-path:url(#SVGID_00000013873982255441604360000003039510464420750258_);">
				<path id="Pfad_4450" class="st1" d="M32,0.1H8C3.7,0,0.1,3.5,0.1,7.8v24.4c0,4.3,3.6,7.8,7.9,7.7H32c4.3,0,7.8-3.4,7.9-7.7V7.8
					C39.9,3.5,36.3,0,32,0.1 M37.1,32.2c0,2.8-2.3,5-5.1,5L8,37.2c-2.8,0-5.1-2.2-5.1-5V7.8c0-2.8,2.3-5,5.1-5H32
					c2.8,0,5.1,2.2,5.1,5V32.2z"/>
			</g>
		</g>
	</g>
</g>
</svg>
