<?xml version="1.0" encoding="utf-8"?>
<!-- Generator: Adobe Illustrator 27.0.0, SVG Export Plug-In . SVG Version: 6.00 Build 0)  -->
<svg version="1.1" id="Ebene_1" xmlns="http://www.w3.org/2000/svg" xmlns:xlink="http://www.w3.org/1999/xlink" x="0px" y="0px"
	 viewBox="0 0 118.7 50.2" style="enable-background:new 0 0 118.7 50.2;" xml:space="preserve">
<style type="text/css">
	.st0{fill:#EB1058;}
</style>
<g id="Gruppe_24_00000106832833827149912260000018231091104391930246_" transform="matrix(0.966, -0.259, 0.259, 0.966, 0, 30.881)">
	
		<rect id="Rechteck_14_00000151505803176310048470000014008709377075604648_" x="0.6" y="-2.3" transform="matrix(-1 2.533096e-06 -2.533096e-06 -1 4.8774 17.8997)" class="st0" width="3.7" height="22.4"/>
	<g id="Gruppe_22_00000181080727671860644710000001731765579835916690_" transform="translate(0 0)">
		<g>
			<g id="Gruppe_21_00000157989526047180212880000013315032481570151312_">
				<path id="Pfad_11_00000164488989778935588130000012411542494122785437_" class="st0" d="M28.9,20.2h-4.5l-11-17.9h-0.1l0.1,1
					c0.1,1.9,0.2,3.6,0.2,5.2v11.7h-3.3V-2.3h4.4l11,17.8h0.1c0-0.2-0.1-1.1-0.1-2.6c-0.1-1.5-0.1-2.6-0.1-3.5V-2.3h3.4V20.2z"/>
				<path id="Pfad_12_00000132794012248827726590000000914542671229348003_" class="st0" d="M47.6-2.3h3.8l-7.8,22.4h-3.9L31.8-2.3
					h3.8l4.7,13.9c0.2,0.7,0.5,1.5,0.8,2.6c0.3,1,0.5,1.8,0.5,2.3c0.1-0.8,0.3-1.7,0.6-2.7c0.3-1,0.5-1.8,0.7-2.3L47.6-2.3z"/>
				<path id="Pfad_13_00000119092073293717093420000008768560776824888973_" class="st0" d="M68.2,20.2L66,13.9h-8.6l-2.2,6.2h-3.9
					l8.4-22.5h4l8.4,22.5H68.2z M65,10.8l-2.1-6.1c-0.2-0.4-0.4-1.1-0.6-1.9s-0.5-1.5-0.6-1.9c-0.3,1.4-0.7,2.8-1.2,4.1l-2,5.8
					L65,10.8z"/>
				<path id="Pfad_14_00000147923269402540497300000001305534366523795645_" class="st0" d="M75.1,20.2V-2.3h3.7V17h9.5v3.1H75.1z"
					/>
				
					<rect id="Rechteck_15_00000001664258639856153930000002472313050382577325_" x="92.1" y="-2.3" transform="matrix(-1 2.533096e-06 -2.533096e-06 -1 187.8755 17.8965)" class="st0" width="3.7" height="22.4"/>
				<path id="Pfad_15_00000087380117825837678830000012777748634508599222_" class="st0" d="M119.9,8.7c0,3.7-1,6.5-3.1,8.5
					c-2.1,2-5,2.9-8.9,2.9h-6.3V-2.3h6.9c3.6,0,6.3,1,8.3,2.9S119.9,5.2,119.9,8.7 M116.1,8.9c0-5.4-2.5-8.1-7.5-8.1h-3.2v16.3h2.6
					C113.4,17.1,116.1,14.3,116.1,8.9"/>
			</g>
		</g>
	</g>
</g>
</svg>
