<?xml version="1.0" encoding="utf-8"?>
<!-- Generator: Adobe Illustrator 26.0.2, SVG Export Plug-In . SVG Version: 6.00 Build 0)  -->
<svg version="1.1" id="Ebene_1" xmlns="http://www.w3.org/2000/svg" xmlns:xlink="http://www.w3.org/1999/xlink" x="0px" y="0px"
	 viewBox="0 0 24 15" style="enable-background:new 0 0 24 15;" xml:space="preserve">
<style type="text/css">
	.st0{fill-rule:evenodd;clip-rule:evenodd;fill:#E0E0E0;}
</style>
<path class="st0" d="M16.5,1.5c-3.3,0-6,2.7-6,6s2.7,6,6,6s6-2.7,6-6S19.8,1.5,16.5,1.5z M9,6.8c0.4-4.1,4.1-7.1,8.2-6.7
	s7.1,4.1,6.7,8.2s-4.1,7.1-8.2,6.7c-3.5-0.4-6.4-3.2-6.7-6.7H6c0,1.2-1,2.2-2.2,2.2H2.2C1,10.5,0,9.5,0,8.3V6.8c0-1.2,1-2.2,2.2-2.2
	h1.5C5,4.5,6,5.5,6,6.8H9z M2.2,6C1.8,6,1.5,6.3,1.5,6.8v1.5C1.5,8.7,1.8,9,2.2,9h1.5c0.4,0,0.7-0.3,0.7-0.7V6.8
	C4.5,6.3,4.2,6,3.7,6H2.2z M12,7.5c0-0.4,0.3-0.7,0.7-0.7h7.5c0.4,0,0.7,0.3,0.7,0.7c0,0.4-0.3,0.7-0.7,0.7h-7.5
	C12.3,8.3,12,7.9,12,7.5z"/>
</svg>
