<?xml version="1.0" encoding="utf-8"?>
<!-- Generator: Adobe Illustrator 26.0.2, SVG Export Plug-In . SVG Version: 6.00 Build 0)  -->
<svg version="1.1" id="Ebene_1" xmlns="http://www.w3.org/2000/svg" xmlns:xlink="http://www.w3.org/1999/xlink" x="0px" y="0px"
	 viewBox="0 0 24 15" style="enable-background:new 0 0 24 15;" xml:space="preserve">
<style type="text/css">
	.st0{fill-rule:evenodd;clip-rule:evenodd;fill:#E0E0E0;}
</style>
<path class="st0" d="M7.5,13.5c3.3,0,6-2.7,6-6s-2.7-6-6-6s-6,2.7-6,6S4.2,13.5,7.5,13.5z M15,8.3c-0.4,4.1-4.1,7.1-8.2,6.7
	S-0.4,10.9,0,6.8S4.1-0.4,8.3,0c3.5,0.4,6.4,3.2,6.7,6.7h3c0-1.2,1-2.2,2.2-2.2h1.5c1.2,0,2.2,1,2.2,2.2v1.5c0,1.2-1,2.2-2.2,2.2
	h-1.5c-1.2,0-2.2-1-2.2-2.2H15z M7.5,12c-0.4,0-0.7-0.3-0.7-0.7v-3h-3C3.3,8.3,3,7.9,3,7.5c0-0.4,0.3-0.7,0.7-0.7h3v-3
	C6.8,3.3,7.1,3,7.5,3s0.7,0.3,0.7,0.7v3h3c0.4,0,0.7,0.3,0.7,0.7c0,0.4-0.3,0.7-0.7,0.7h-3v3C8.3,11.7,7.9,12,7.5,12z M21.8,9
	c0.4,0,0.7-0.3,0.7-0.7V6.8c0-0.4-0.3-0.7-0.7-0.7h-1.5c-0.4,0-0.7,0.3-0.7,0.7v1.5c0,0.4,0.3,0.7,0.7,0.7H21.8z"/>
</svg>
