<?xml version="1.0" encoding="utf-8"?>
<!-- Generator: Adobe Illustrator 26.0.3, SVG Export Plug-In . SVG Version: 6.00 Build 0)  -->
<svg version="1.1" id="Ebene_1" xmlns="http://www.w3.org/2000/svg" xmlns:xlink="http://www.w3.org/1999/xlink" x="0px" y="0px"
	 viewBox="0 0 136.9 79" style="enable-background:new 0 0 136.9 79;" xml:space="preserve">
<style type="text/css">
	.st0{clip-path:url(#SVGID_00000103951425736510294170000015996603374234659722_);}
	.st1{fill:#6A9A3B;}
	.st2{clip-path:url(#SVGID_00000098218932026422056290000008253930449963744426_);}
</style>
<g id="Gruppe_3792">
	<g>
		<defs>
			<rect id="SVGID_1_" width="78.3" height="78.3"/>
		</defs>
		<clipPath id="SVGID_00000039124315063113053190000001180532827267398326_">
			<use xlink:href="#SVGID_1_"  style="overflow:visible;"/>
		</clipPath>
		<g id="Gruppe_3791" style="clip-path:url(#SVGID_00000039124315063113053190000001180532827267398326_);">
			<path id="Pfad_4402" class="st1" d="M75.6,52.5c-0.6-0.3-1.2-0.7-1.9-1v5c0,9.6-7.8,17.3-17.4,17.4h-34C12.8,73.8,5,66,5,56.4
				v-34C5,12.8,12.8,5,22.4,5h34c5.6,0,10.9,2.7,14.2,7.3c1.2-1.2,2.5-2.2,3.9-3.1C70.3,3.4,63.6,0,56.4,0h-34C10,0,0,10,0,22.4v34
				c0,12.3,10,22.4,22.4,22.4h34c12.3,0,22.4-10,22.4-22.4v-2.2C77.7,53.6,76.7,53,75.6,52.5"/>
			<path id="Pfad_4403" class="st1" d="M38.5,14.4h1.8c0.2,0,0.3,0.2,0.3,0.4v49.3c0,0.2-0.1,0.4-0.3,0.4h-1.8
				c-0.2,0-0.3-0.2-0.3-0.4c0,0,0,0,0,0V14.7C38.1,14.5,38.3,14.4,38.5,14.4L38.5,14.4"/>
			<path id="Pfad_4404" class="st1" d="M60.8,53.1H46.9c-1.7,0-3-1.4-3-3V30c0-1.7,1.4-3,3-3h13.9c1.7,0,3,1.4,3,3v20.1
				C63.8,51.8,62.5,53.1,60.8,53.1 M46.9,29.3c-0.4,0-0.7,0.3-0.7,0.7c0,0,0,0,0,0v20.1c0,0.4,0.3,0.7,0.7,0.7h13.9
				c0.4,0,0.7-0.3,0.7-0.7V30c0-0.4-0.3-0.7-0.7-0.7c0,0,0,0,0,0L46.9,29.3L46.9,29.3z"/>
			<path id="Pfad_4405" class="st1" d="M31.9,52.5H18c-1.7,0-3-1.4-3-3V29.3c0-1.7,1.4-3,3-3h13.9c1.7,0,3,1.4,3,3v20.1
				C34.9,51.1,33.5,52.5,31.9,52.5"/>
			<path id="Pfad_4406" class="st1" d="M58.8,21L58.8,21l-4-5.9c-0.4-0.6-1.1-0.8-1.7-0.4c-0.2,0.1-0.3,0.2-0.4,0.4l-3.9,6l0,0
				c-0.4,0.6-0.2,1.3,0.4,1.7c0.2,0.1,0.4,0.2,0.6,0.2h7.9c0.7,0,1.2-0.6,1.2-1.2c0,0,0,0,0,0C59.1,21.5,59,21.2,58.8,21"/>
			<path id="Pfad_4407" class="st1" d="M29.9,57.8L29.9,57.8c0.1-0.2,0.2-0.4,0.2-0.7c0-0.7-0.6-1.2-1.2-1.2c0,0,0,0,0,0H21
				c-0.7,0-1.2,0.6-1.2,1.2c0,0.3,0.1,0.5,0.2,0.7l0,0l4,5.9c0.4,0.6,1.1,0.8,1.7,0.4c0.2-0.1,0.3-0.2,0.4-0.4L29.9,57.8L29.9,57.8z
				"/>
		</g>
	</g>
</g>
<g id="Gruppe_3794">
	<g>
		<defs>
			<rect id="SVGID_00000171707604499567365740000014472394849768216222_" width="136.9" height="79"/>
		</defs>
		<clipPath id="SVGID_00000021107345396926516830000013204935045699383731_">
			<use xlink:href="#SVGID_00000171707604499567365740000014472394849768216222_"  style="overflow:visible;"/>
		</clipPath>
		<g id="Gruppe_3793" style="clip-path:url(#SVGID_00000021107345396926516830000013204935045699383731_);">
			<path id="Pfad_4408" class="st1" d="M136,73.9l-24.2-24.2c10.6-12.4,9.2-31.1-3.2-41.7s-31.1-9.2-41.7,3.2s-9.2,31.1,3.2,41.7
				c10.7,9.1,26.2,9.5,37.3,0.9l24.3,24.3c1.2,1.2,3.1,1.1,4.2-0.1C137.2,76.9,137.2,75,136,73.9 M65.9,30.5
				C65.9,17.5,76.4,7,89.4,7s23.5,10.5,23.5,23.5S102.4,54,89.4,54C76.4,54,65.9,43.5,65.9,30.5"/>
		</g>
	</g>
</g>
</svg>
