<?xml version="1.0" encoding="utf-8"?>
<!-- Generator: Adobe Illustrator 27.5.0, SVG Export Plug-In . SVG Version: 6.00 Build 0)  -->
<svg version="1.1" id="Ebene_1" xmlns="http://www.w3.org/2000/svg" xmlns:xlink="http://www.w3.org/1999/xlink" x="0px" y="0px"
	 viewBox="0 0 36.3 36.8" style="enable-background:new 0 0 36.3 36.8;" xml:space="preserve">
<style type="text/css">
	.st0{fill:#6C2477;}
	.st1{fill:#FFFFFF;}
</style>
<g id="Gruppe_4403" transform="translate(-1 -6)">
	<g>
		<g>
			<g id="Gruppe_4402" transform="translate(1 6)">
				<path id="Pfad_4721" class="st0" d="M24.1,6.2H5.9C2.7,6.2,0,8.9,0,12.1v18.7c0,3.3,2.7,5.9,5.9,5.9H24c3.3,0,5.9-2.7,5.9-5.9
					V12.1C30,8.9,27.3,6.2,24.1,6.2 M27.8,30.9c0,2.1-1.6,3.8-3.7,3.8h-2.4c0.1-0.2,0.1-0.4,0.1-0.6v-6.2c0.6-0.5,1-1.3,1-2.1V20
					c0-1.5-1.2-2.7-2.7-2.7s-2.7,1.2-2.7,2.7l0,0v5.8c0,0.8,0.4,1.6,1,2.1v6.2c0,0.2,0,0.4,0.1,0.6h-6.8c0.1-0.2,0.1-0.4,0.1-0.6
					v-6.2c0.6-0.5,1-1.3,1-2.1V20c0-1.5-1.2-2.7-2.7-2.7l0,0l0,0c-1.5,0-2.7,1.2-2.7,2.7v5.8c0,0.8,0.4,1.6,1,2.1v6.2
					c0,0.2,0,0.4,0.1,0.6H5.9c-2.1,0-3.8-1.7-3.8-3.8V12.1c0-2.1,1.7-3.8,3.8-3.8H24c2.1,0,3.8,1.7,3.8,3.8L27.8,30.9L27.8,30.9z"/>
				<path id="Pfad_4722" class="st0" d="M20,11.8c-1.4,0-2.5,1.1-2.5,2.5s1.1,2.5,2.5,2.5l0,0c1.4,0,2.5-1.1,2.5-2.5l0,0l0,0
					C22.5,12.9,21.4,11.8,20,11.8L20,11.8"/>
				<path id="Pfad_4723" class="st0" d="M10,11.8c-1.4,0-2.5,1.1-2.5,2.5s1.1,2.5,2.5,2.5l0,0l0,0c1.4,0,2.5-1.1,2.5-2.5l0,0l0,0
					C12.4,12.9,11.3,11.8,10,11.8L10,11.8"/>
				<path id="Pfad_4724" class="st0" d="M28.9,14.9c4.1,0,7.5-3.3,7.5-7.5S33,0,28.9,0s-7.5,3.3-7.5,7.5S24.8,14.9,28.9,14.9
					L28.9,14.9"/>
				<path id="Pfad_4725" class="st1" d="M28.9,2.2c0.3,0,0.6,0.3,0.6,0.6l0,0V7h4.2c0.3,0,0.6,0.3,0.6,0.6c0,0.3-0.3,0.6-0.6,0.6
					h-4.2v4.2c0,0.3-0.3,0.6-0.6,0.6c-0.3,0-0.6-0.3-0.6-0.6l0,0V8h-4.2c-0.3,0-0.6-0.3-0.6-0.6c0-0.3,0.3-0.6,0.6-0.6h4.2V2.7
					C28.3,2.4,28.6,2.2,28.9,2.2L28.9,2.2L28.9,2.2z"/>
			</g>
		</g>
	</g>
</g>
</svg>
